<svg xmlns="http://www.w3.org/2000/svg" xmlns:xlink="http://www.w3.org/1999/xlink" width="500" zoomAndPan="magnify" viewBox="0 0 375 374.999991" height="500" preserveAspectRatio="xMidYMid meet" version="1.0"><defs><g/><clipPath id="ed220ea6b9"><path d="M 97 111.992188 L 276.980469 111.992188 L 276.980469 177.242188 L 97 177.242188 Z M 97 111.992188 " clip-rule="nonzero"/></clipPath></defs><path fill="#ffde59" d="M 235.234375 160.554688 L 241.796875 160.554688 C 242.238281 160.554688 242.597656 160.195312 242.597656 159.753906 L 242.597656 153.199219 C 242.597656 152.757812 242.238281 152.402344 241.796875 152.402344 L 235.234375 152.402344 C 234.792969 152.402344 234.433594 152.757812 234.433594 153.199219 L 234.433594 159.753906 C 234.433594 160.195312 234.792969 160.554688 235.234375 160.554688 " fill-opacity="1" fill-rule="nonzero"/><path fill="#ffde59" d="M 224.679688 160.554688 L 231.242188 160.554688 C 231.683594 160.554688 232.042969 160.195312 232.042969 159.753906 L 232.042969 153.199219 C 232.042969 152.757812 231.683594 152.402344 231.242188 152.402344 L 224.679688 152.402344 C 224.238281 152.402344 223.882812 152.757812 223.882812 153.199219 L 223.882812 159.753906 C 223.882812 160.195312 224.238281 160.554688 224.679688 160.554688 " fill-opacity="1" fill-rule="nonzero"/><path fill="#ffde59" d="M 235.234375 170.671875 L 241.796875 170.671875 C 242.238281 170.671875 242.597656 170.316406 242.597656 169.875 L 242.597656 163.320312 C 242.597656 162.878906 242.238281 162.523438 241.796875 162.523438 L 235.234375 162.523438 C 234.792969 162.523438 234.433594 162.878906 234.433594 163.320312 L 234.433594 169.875 C 234.433594 170.316406 234.792969 170.671875 235.234375 170.671875 " fill-opacity="1" fill-rule="nonzero"/><path fill="#ffde59" d="M 224.679688 170.671875 L 231.242188 170.671875 C 231.683594 170.671875 232.042969 170.316406 232.042969 169.875 L 232.042969 163.320312 C 232.042969 162.878906 231.683594 162.523438 231.242188 162.523438 L 224.679688 162.523438 C 224.238281 162.523438 223.882812 162.878906 223.882812 163.320312 L 223.882812 169.875 C 223.882812 170.316406 224.238281 170.671875 224.679688 170.671875 " fill-opacity="1" fill-rule="nonzero"/><path fill="#ffde59" d="M 163.398438 159.726562 L 167.394531 159.726562 C 167.664062 159.726562 167.878906 159.507812 167.878906 159.242188 L 167.878906 155.25 C 167.878906 154.980469 167.664062 154.761719 167.394531 154.761719 L 163.398438 154.761719 C 163.128906 154.761719 162.910156 154.980469 162.910156 155.25 L 162.910156 159.242188 C 162.910156 159.507812 163.128906 159.726562 163.398438 159.726562 " fill-opacity="1" fill-rule="nonzero"/><path fill="#ffde59" d="M 156.972656 159.726562 L 160.96875 159.726562 C 161.238281 159.726562 161.453125 159.507812 161.453125 159.242188 L 161.453125 155.25 C 161.453125 154.980469 161.238281 154.761719 160.96875 154.761719 L 156.972656 154.761719 C 156.703125 154.761719 156.484375 154.980469 156.484375 155.25 L 156.484375 159.242188 C 156.484375 159.507812 156.703125 159.726562 156.972656 159.726562 " fill-opacity="1" fill-rule="nonzero"/><path fill="#ffde59" d="M 163.398438 165.886719 L 167.394531 165.886719 C 167.664062 165.886719 167.878906 165.671875 167.878906 165.402344 L 167.878906 161.410156 C 167.878906 161.144531 167.664062 160.925781 167.394531 160.925781 L 163.398438 160.925781 C 163.128906 160.925781 162.910156 161.144531 162.910156 161.410156 L 162.910156 165.402344 C 162.910156 165.671875 163.128906 165.886719 163.398438 165.886719 " fill-opacity="1" fill-rule="nonzero"/><path fill="#ffde59" d="M 156.972656 165.886719 L 160.96875 165.886719 C 161.238281 165.886719 161.453125 165.671875 161.453125 165.402344 L 161.453125 161.410156 C 161.453125 161.144531 161.238281 160.925781 160.96875 160.925781 L 156.972656 160.925781 C 156.703125 160.925781 156.484375 161.144531 156.484375 161.410156 L 156.484375 165.402344 C 156.484375 165.671875 156.703125 165.886719 156.972656 165.886719 " fill-opacity="1" fill-rule="nonzero"/><g clip-path="url(#ed220ea6b9)"><path fill="#31373e" d="M 107.753906 170.277344 L 130.871094 136.734375 L 155.464844 136.734375 L 132.351562 170.277344 Z M 191.734375 169.144531 L 166.832031 133.003906 L 176.324219 119.230469 L 226.132812 119.230469 Z M 162.507812 139.496094 L 183.347656 169.738281 L 141.667969 169.738281 Z M 97.652344 175.582031 C 98.28125 176.769531 99.515625 177.246094 100.859375 177.246094 L 193.230469 176.980469 C 194.421875 176.980469 195.539062 176.394531 196.214844 175.410156 L 233.027344 121.996094 L 269.835938 175.410156 C 270.539062 176.429688 271.671875 176.980469 272.824219 176.980469 C 273.53125 176.980469 274.246094 176.773438 274.875 176.339844 C 276.523438 175.207031 276.941406 172.953125 275.804688 171.308594 L 236.039062 113.601562 C 235.949219 113.464844 235.847656 113.335938 235.738281 113.210938 C 235.632812 113.09375 235.519531 112.984375 235.402344 112.878906 C 234.769531 112.332031 233.945312 111.996094 233.039062 111.992188 L 174.421875 111.992188 C 173.226562 111.992188 172.113281 112.578125 171.4375 113.558594 L 160.453125 129.496094 L 128.964844 129.496094 C 127.773438 129.496094 126.65625 130.078125 125.980469 131.0625 L 97.875 171.84375 C 97.113281 172.953125 97.027344 174.390625 97.652344 175.582031 " fill-opacity="1" fill-rule="nonzero"/></g><path fill="#ffde59" d="M 226.132812 119.230469 L 176.324219 119.230469 L 166.832031 133.003906 L 191.734375 169.144531 L 226.132812 119.230469 " fill-opacity="1" fill-rule="nonzero"/><path fill="#ffde59" d="M 132.351562 170.277344 L 155.464844 136.734375 L 130.871094 136.734375 L 107.753906 170.277344 L 132.351562 170.277344 " fill-opacity="1" fill-rule="nonzero"/><g fill="#31373e" fill-opacity="1"><g transform="translate(122.954777, 214.525635)"><g><path d="M 2.265625 -21.328125 L 5.6875 -21.328125 L 16.421875 -4.125 L 16.421875 -21.328125 L 19.1875 -21.328125 L 19.1875 0 L 15.921875 0 L 5.046875 -17.1875 L 5.046875 0 L 2.265625 0 Z M 2.265625 -21.328125 "/></g></g></g><g fill="#31373e" fill-opacity="1"><g transform="translate(144.425173, 214.525635)"><g><path d="M 5.4375 -21.328125 L 5.4375 -8.140625 C 5.4375 -6.578125 5.71875 -5.296875 6.28125 -4.296875 C 7.144531 -2.753906 8.59375 -1.984375 10.625 -1.984375 C 11.832031 -1.984375 12.851562 -2.203125 13.6875 -2.640625 C 14.519531 -3.085938 15.160156 -3.703125 15.609375 -4.484375 C 15.828125 -4.929688 15.992188 -5.460938 16.109375 -6.078125 C 16.234375 -6.703125 16.296875 -7.390625 16.296875 -8.140625 L 16.296875 -21.328125 L 19.265625 -21.328125 L 19.265625 -9.34375 C 19.265625 -6.75 18.910156 -4.738281 18.203125 -3.3125 C 17.546875 -2.113281 16.59375 -1.164062 15.34375 -0.46875 C 14.09375 0.21875 12.597656 0.5625 10.859375 0.5625 C 9.117188 0.5625 7.625 0.21875 6.375 -0.46875 C 5.132812 -1.164062 4.1875 -2.113281 3.53125 -3.3125 C 2.820312 -4.738281 2.46875 -6.75 2.46875 -9.34375 L 2.46875 -21.328125 Z M 5.4375 -21.328125 "/></g></g></g><g fill="#31373e" fill-opacity="1"><g transform="translate(165.895569, 214.525635)"><g><path d="M 0.6875 -2.421875 L 13.71875 -18.765625 L 1.640625 -18.765625 L 1.640625 -21.328125 L 17.484375 -21.328125 L 17.484375 -18.8125 L 4.375 -2.5625 L 17.484375 -2.5625 L 17.484375 0 L 0.6875 0 Z M 0.6875 -2.421875 "/></g></g></g><g fill="#31373e" fill-opacity="1"><g transform="translate(184.056129, 214.525635)"><g><path d="M 2.265625 -21.328125 L 5.171875 -21.328125 L 5.171875 -2.5625 L 15.953125 -2.5625 L 15.953125 0 L 2.265625 0 Z M 2.265625 -21.328125 "/></g></g></g><g fill="#31373e" fill-opacity="1"><g transform="translate(200.579772, 214.525635)"><g/></g></g><g fill="#31373e" fill-opacity="1"><g transform="translate(206.74943, 214.525635)"><g/></g></g><g fill="#31373e" fill-opacity="1"><g transform="translate(212.919088, 214.525635)"><g/></g></g><g fill="#31373e" fill-opacity="1"><g transform="translate(219.088746, 214.525635)"><g/></g></g><g fill="#31373e" fill-opacity="1"><g transform="translate(225.247739, 214.525635)"><g><path d="M 16.796875 -2.1875 C 16.796875 -0.25 16.222656 1.390625 15.078125 2.734375 C 13.847656 4.035156 12.269531 4.6875 10.34375 4.6875 L 6.375 4.6875 C 4.675781 4.6875 3.179688 4.003906 1.890625 2.640625 C 0.628906 1.316406 0 -0.21875 0 -1.96875 L 0 -7.375 L 2.59375 -7.375 L 2.59375 -1.65625 C 2.59375 -0.625 3.054688 0.25 3.984375 0.96875 C 4.835938 1.664062 5.78125 2.015625 6.8125 2.015625 L 10.1875 2.015625 C 11.21875 2.015625 12.128906 1.660156 12.921875 0.953125 C 13.765625 0.210938 14.1875 -0.65625 14.1875 -1.65625 L 14.1875 -18.40625 L 16.796875 -18.40625 Z M 16.796875 -2.1875 "/></g></g></g><g fill="#31373e" fill-opacity="1"><g transform="translate(244.540611, 214.525635)"><g><path d="M 7.71875 -16.84375 C 7.71875 -16.320312 7.546875 -15.882812 7.203125 -15.53125 C 6.867188 -15.175781 6.429688 -15 5.890625 -15 C 4.566406 -15 3.90625 -15.613281 3.90625 -16.84375 C 3.90625 -17.851562 4.535156 -18.359375 5.796875 -18.359375 C 7.078125 -18.359375 7.71875 -17.851562 7.71875 -16.84375 Z M 10.59375 -1.828125 C 9.28125 -1.859375 8.375 -2.257812 7.875 -3.03125 C 7.863281 -0.882812 7.316406 0.910156 6.234375 2.359375 C 5.078125 3.910156 3.429688 4.6875 1.296875 4.6875 L -2.046875 4.6875 L -2.484375 2.078125 L 1.140625 2.078125 C 2.191406 2.078125 3.113281 1.710938 3.90625 0.984375 C 4.78125 0.242188 5.21875 -0.632812 5.21875 -1.65625 L 5.21875 -9.984375 L 7.84375 -9.984375 L 7.84375 -6.25 C 7.84375 -5.03125 8.757812 -4.421875 10.59375 -4.421875 Z M 10.59375 -1.828125 "/></g></g></g><g fill="#31373e" fill-opacity="1"><g transform="translate(254.702391, 214.525635)"><g><path d="M 4.125 -23.09375 C 4.125 -23.351562 4.007812 -23.570312 3.78125 -23.75 C 3.550781 -23.925781 3.296875 -24.015625 3.015625 -24.015625 C 2.367188 -24.015625 2.046875 -23.664062 2.046875 -22.96875 C 2.046875 -22.3125 2.394531 -21.984375 3.09375 -21.984375 C 3.300781 -21.984375 3.523438 -22.113281 3.765625 -22.375 C 4.003906 -22.625 4.125 -22.863281 4.125 -23.09375 Z M 5.078125 -23.0625 C 5.078125 -22.164062 4.804688 -21.570312 4.265625 -21.28125 L 0.921875 -19.53125 L 0.375 -20.40625 L 2.078125 -21.328125 C 1.453125 -21.796875 1.140625 -22.34375 1.140625 -22.96875 C 1.140625 -23.832031 1.585938 -24.46875 2.484375 -24.875 C 2.617188 -24.914062 2.734375 -24.945312 2.828125 -24.96875 C 2.921875 -24.988281 2.984375 -25 3.015625 -25 C 3.273438 -25 3.53125 -24.945312 3.78125 -24.84375 C 4.03125 -24.738281 4.25 -24.597656 4.4375 -24.421875 C 4.632812 -24.234375 4.789062 -24.023438 4.90625 -23.796875 C 5.019531 -23.566406 5.078125 -23.320312 5.078125 -23.0625 Z M 5.078125 -23.0625 "/></g></g></g><g fill="#31373e" fill-opacity="1"><g transform="translate(254.702391, 214.525635)"><g><path d="M 5.015625 -14.046875 C 5.015625 -13.523438 4.832031 -13.082031 4.46875 -12.71875 C 4.125 -12.351562 3.691406 -12.171875 3.171875 -12.171875 C 1.878906 -12.171875 1.234375 -12.796875 1.234375 -14.046875 C 1.234375 -15.054688 1.847656 -15.5625 3.078125 -15.5625 C 4.367188 -15.5625 5.015625 -15.054688 5.015625 -14.046875 Z M 7.515625 -6.046875 C 7.515625 -4.953125 7.171875 -3.988281 6.484375 -3.15625 C 5.785156 -2.269531 4.882812 -1.828125 3.78125 -1.828125 L -0.4375 -1.828125 L -0.4375 -4.421875 C 2.269531 -4.421875 3.769531 -4.484375 4.0625 -4.609375 C 4.625 -4.796875 4.90625 -5.570312 4.90625 -6.9375 C 4.90625 -7.039062 4.90625 -7.164062 4.90625 -7.3125 C 4.90625 -7.457031 4.898438 -7.628906 4.890625 -7.828125 C 4.890625 -7.910156 4.882812 -8 4.875 -8.09375 C 4.875 -8.195312 4.875 -8.300781 4.875 -8.40625 C 4.863281 -8.695312 4.859375 -8.992188 4.859375 -9.296875 C 4.859375 -9.597656 4.859375 -9.828125 4.859375 -9.984375 L 7.515625 -9.984375 Z M 7.515625 -6.046875 "/></g></g></g><g fill="#31373e" fill-opacity="1"><g transform="translate(264.716486, 214.525635)"><g/></g></g><g fill="#31373e" fill-opacity="1"><g transform="translate(270.886144, 214.525635)"><g/></g></g><path stroke-linecap="butt" transform="matrix(0.000000000000000046, 0.748755, -0.75, 0.000000000000000046, 212.829087, 187.503986)" fill="none" stroke-linejoin="miter" d="M -0.000106627 2.001282 L 47.088455 2.001282 " stroke="#31373e" stroke-width="4" stroke-opacity="1" stroke-miterlimit="4"/></svg>